<svg width="136" height="30" viewBox="0 0 136 30" fill="none" xmlns="http://www.w3.org/2000/svg">
<path d="M3.69141 19.3018L3.55957 20.4297C3.55957 21.6113 3.95508 22.417 4.74609 22.8467C5.01953 22.9932 5.34668 23.0664 5.72754 23.0664C6.1084 23.0664 6.4502 23.0029 6.75293 22.876C7.05566 22.7393 7.30469 22.5635 7.5 22.3486C7.91016 21.9092 8.11523 21.4014 8.11523 20.8252C8.11523 20.249 7.99805 19.7266 7.76367 19.2578C7.5293 18.7891 7.23633 18.3203 6.88477 17.8516L5.71289 16.416C4.76562 15.2832 4.13086 14.2529 3.80859 13.3252C3.48633 12.3877 3.3252 11.5283 3.3252 10.7471C3.3252 9.96582 3.41797 9.22852 3.60352 8.53516C3.79883 7.83203 4.06738 7.16797 4.40918 6.54297C4.75098 5.9082 5.16113 5.32715 5.63965 4.7998C6.11816 4.27246 6.65039 3.81836 7.23633 3.4375C8.45703 2.61719 9.66797 2.20703 10.8691 2.20703C12.0703 2.20703 13.0078 2.37305 13.6816 2.70508C14.3555 3.03711 14.8975 3.45703 15.3076 3.96484C16.0693 4.92187 16.4502 6.0791 16.4502 7.43652C16.4502 8.69629 16.0938 9.88281 15.3809 10.9961C14.7266 12.0117 13.9941 12.6562 13.1836 12.9297C13.0078 13.0176 12.7637 13.0615 12.4512 13.0615C12.1484 13.0615 11.8896 13.0176 11.6748 12.9297C11.4697 12.832 11.2891 12.7051 11.1328 12.5488C10.791 12.207 10.6201 11.8359 10.6201 11.4355C10.6201 11.1621 10.7031 10.9814 10.8691 10.8936C11.6113 10.4932 12.2559 9.91211 12.8027 9.15039C13.3984 8.32031 13.7109 7.49512 13.7402 6.6748C13.7695 5.84473 13.5693 5.23438 13.1396 4.84375C12.7197 4.44336 12.1582 4.24316 11.4551 4.24316C10.752 4.24316 10.1172 4.4043 9.55078 4.72656C8.98438 5.03906 8.49609 5.46387 8.08594 6.00098C7.20703 7.15332 6.76758 8.51563 6.76758 10.0879C6.76758 11.1328 7.12891 12.2363 7.85156 13.3984C8.1543 13.8965 8.48145 14.3896 8.83301 14.8779C9.19434 15.3564 9.53125 15.8496 9.84375 16.3574C10.5566 17.5391 10.9131 18.5986 10.9131 19.5361C10.9131 20.4736 10.7422 21.2646 10.4004 21.9092C10.0684 22.5537 9.62402 23.1152 9.06738 23.5938C7.86621 24.6289 6.49902 25.1465 4.96582 25.1465C3.52051 25.1465 2.40723 24.7168 1.62598 23.8574C1.00098 23.1641 0.688477 22.4121 0.688477 21.6016C0.688477 20.7227 0.9375 19.9805 1.43555 19.375C1.81641 18.916 2.18262 18.6426 2.53418 18.5547C3.30566 18.3496 3.69141 18.5986 3.69141 19.3018ZM23.8184 21.1621C24.1016 21.1621 24.2432 21.3525 24.2432 21.7334C24.2432 22.0557 24.1455 22.3682 23.9502 22.6709C23.6865 23.2373 23.1592 23.7744 22.3682 24.2822C21.4697 24.8584 20.5664 25.1465 19.6582 25.1465C18.0859 25.1465 17.0898 24.4434 16.6699 23.0371C16.1719 21.3672 16.9189 17.8271 18.9111 12.417C17.7881 12.3193 17.1777 12.124 17.0801 11.8311C17.0508 11.7432 17.0361 11.6504 17.0361 11.5527C17.0361 11.4453 17.0801 11.3232 17.168 11.1865C17.2656 11.0498 17.3877 10.918 17.5342 10.791C17.876 10.5078 18.2227 10.3662 18.5742 10.3662H19.7314C20.7861 7.89551 21.5381 6.48926 21.9873 6.14746C22.2021 5.99121 22.4414 5.91309 22.7051 5.91309C22.9688 5.91309 23.1885 5.94727 23.3643 6.01562C23.54 6.08398 23.6963 6.18164 23.833 6.30859C24.1455 6.60156 24.3018 6.92871 24.3018 7.29004C24.3018 7.48535 24.2432 7.70996 24.126 7.96387L23.042 10.3223H23.3936C23.999 10.3223 24.4873 10.3174 24.8584 10.3076C24.8584 10.3076 25.1367 10.3027 25.6934 10.293C25.8789 10.2832 26.1084 10.2783 26.3818 10.2783C26.665 10.2783 26.8066 10.3809 26.8066 10.5859C26.8066 11.875 25.2832 12.5195 22.2363 12.5195H22.1191L21.123 15.0977C20 18.1445 19.4385 20.2783 19.4385 21.499C19.4385 21.8408 19.5166 22.1094 19.6729 22.3047C19.8291 22.4902 20.1221 22.583 20.5518 22.583C20.9814 22.583 21.3721 22.5098 21.7236 22.3633C22.0752 22.2168 22.3828 22.0557 22.6465 21.8799C22.9102 21.6943 23.1348 21.5283 23.3203 21.3818C23.5156 21.2354 23.6816 21.1621 23.8184 21.1621ZM27.4365 24.0039C27.0264 23.6133 26.7041 23.1201 26.4697 22.5244C26.2354 21.9189 26.1133 21.2061 26.1035 20.3857C26.0938 19.5654 26.1914 18.7354 26.3965 17.8955C26.6113 17.0557 26.9092 16.2451 27.29 15.4639C27.6807 14.6826 28.1445 13.9502 28.6816 13.2666C29.2285 12.583 29.8291 11.9873 30.4834 11.4795C31.9092 10.3857 33.3887 9.83887 34.9219 9.83887C36.9336 9.83887 38.2959 10.7227 39.0088 12.4902C39.5166 13.7695 39.5459 15.3174 39.0967 17.1338C38.6865 18.8037 37.9346 20.3369 36.8408 21.7334C35.7568 23.1299 34.4775 24.1211 33.0029 24.707C32.2607 25 31.5283 25.1465 30.8057 25.1465C30.0928 25.1465 29.4531 25.0537 28.8867 24.8682C28.3301 24.6826 27.8467 24.3945 27.4365 24.0039ZM30.2344 16.8994C29.9414 17.6221 29.707 18.3643 29.5312 19.126C29.3652 19.8877 29.2871 20.6104 29.2969 21.2939C29.3066 21.9678 29.4092 22.5 29.6045 22.8906C29.8096 23.2715 30.1367 23.4619 30.5859 23.4619C31.0352 23.4619 31.4746 23.3105 31.9043 23.0078C32.3438 22.6953 32.7686 22.2852 33.1787 21.7773C33.5889 21.2695 33.9746 20.6836 34.3359 20.0195C34.6973 19.3555 35.0146 18.6621 35.2881 17.9395C35.8838 16.3672 36.1719 14.9707 36.1523 13.75C36.1523 12.6758 35.9326 11.9922 35.4932 11.6992C35.3174 11.582 35.0684 11.5234 34.7461 11.5234C34.4336 11.5234 34.0723 11.6699 33.6621 11.9629C33.252 12.2461 32.8418 12.6318 32.4316 13.1201C32.0215 13.6084 31.626 14.1797 31.2451 14.834C30.8643 15.4883 30.5273 16.1768 30.2344 16.8994ZM41.5723 24.6484C41.377 24.502 41.2207 24.3408 41.1035 24.165C40.9863 23.9795 40.9229 23.8232 40.9131 23.6963C40.9033 23.5596 40.9277 23.3984 40.9863 23.2129C41.0547 23.0176 41.1426 22.7832 41.25 22.5098C43.2422 17.6074 44.2383 14.3164 44.2383 12.6367C44.209 12.168 44.0479 11.8359 43.7549 11.6406L43.4619 11.4355C43.374 11.3672 43.3252 11.25 43.3154 11.084C43.3154 10.9082 43.3789 10.7422 43.5059 10.5859C43.6328 10.4297 43.7988 10.293 44.0039 10.1758C44.4238 9.95117 44.8535 9.83887 45.293 9.83887C45.7422 9.83887 46.0889 9.8877 46.333 9.98535C46.5869 10.083 46.8018 10.2148 46.9775 10.3809C47.3486 10.7324 47.5342 11.1035 47.5342 11.4941C47.5439 11.8848 47.5 12.2803 47.4023 12.6807C47.3145 13.0811 47.207 13.4766 47.0801 13.8672C46.9531 14.248 46.8262 14.6143 46.6992 14.9658C46.5723 15.3076 46.4893 15.5615 46.4502 15.7275C46.3721 16.0693 46.3428 16.2842 46.3623 16.3721C46.5967 16.167 46.7383 15.9668 46.7871 15.7715L47.3584 14.6875C48.6279 12.4023 49.8682 10.8887 51.0791 10.1465C51.4307 9.94141 51.8506 9.83887 52.3389 9.83887C52.8369 9.83887 53.2373 10.0146 53.54 10.3662C53.8428 10.708 53.999 11.0889 54.0088 11.5088C54.0283 11.9287 53.999 12.2803 53.9209 12.5635C53.8525 12.8369 53.7451 13.0957 53.5986 13.3398C53.2764 13.8867 52.8857 14.1602 52.4268 14.1602C52.2998 14.1602 52.1826 14.1162 52.0752 14.0283L51.7529 13.75C51.4307 13.4668 51.1182 13.3252 50.8154 13.3252C50.5225 13.3252 50.1611 13.5205 49.7314 13.9111C49.3115 14.3018 48.8721 14.8047 48.4131 15.4199C46.8701 17.4609 45.6104 19.7461 44.6338 22.2754L43.9893 23.9746C43.8232 24.3945 43.6768 24.6973 43.5498 24.8828C43.4229 25.0586 43.2324 25.1465 42.9785 25.1465C42.7344 25.1465 42.4854 25.0977 42.2314 25C41.9873 24.9121 41.7676 24.7949 41.5723 24.6484ZM53.9062 19.873C53.9453 19.0234 54.0869 18.2129 54.3311 17.4414C54.5752 16.6602 54.9023 15.9082 55.3125 15.1855C55.7227 14.4531 56.2012 13.7646 56.748 13.1201C57.3047 12.4658 57.9053 11.8945 58.5498 11.4062C59.9463 10.3613 61.3574 9.83887 62.7832 9.83887C64.4531 9.83887 65.5664 10.5273 66.123 11.9043C66.3184 12.373 66.4111 12.9297 66.4014 13.5742C66.3916 14.209 66.2695 14.7998 66.0352 15.3467C65.8008 15.8838 65.4736 16.377 65.0537 16.8262C64.6436 17.2656 64.1504 17.6611 63.5742 18.0127C63.0078 18.3643 62.3877 18.6621 61.7139 18.9062C60.3271 19.3945 58.8428 19.6484 57.2607 19.668C57.2217 19.8047 57.1973 20.0098 57.1875 20.2832C57.1777 20.5566 57.207 20.8643 57.2754 21.2061C57.3438 21.5381 57.4609 21.8359 57.627 22.0996C57.9785 22.6855 58.4863 22.9785 59.1504 22.9785C60.2832 22.9785 61.3867 22.6465 62.4609 21.9824C62.8418 21.7578 63.1494 21.5283 63.3838 21.2939C63.6279 21.0498 63.8379 20.9277 64.0137 20.9277C64.1895 20.9277 64.3408 21.0352 64.4678 21.25C64.6045 21.4551 64.6729 21.6895 64.6729 21.9531C64.6729 22.4707 64.5264 22.9199 64.2334 23.3008C63.0029 24.5312 61.1719 25.1465 58.7402 25.1465C57.3047 25.1465 56.1523 24.7168 55.2832 23.8574C54.3066 22.8809 53.8477 21.5527 53.9062 19.873ZM62.4609 11.7871C61.4355 11.7871 60.4492 12.4902 59.502 13.8965C58.7012 15.1074 58.0566 16.543 57.5684 18.2031C59.1992 18.0371 60.6152 17.3926 61.8164 16.2695C62.9199 15.2148 63.4717 14.2041 63.4717 13.2373C63.4717 12.2705 63.1348 11.7871 62.4609 11.7871ZM66.2549 28.2227C66.2549 28.0176 66.4111 27.6074 66.7236 26.9922C67.0264 26.3867 67.3584 25.6104 67.7197 24.6631C68.0908 23.7158 68.4424 22.7295 68.7744 21.7041C69.1064 20.6787 69.4434 19.5801 69.7852 18.4082L70.9277 14.541L69.4043 14.9512C69.0234 14.9512 68.7109 14.751 68.4668 14.3506C68.4082 14.2432 68.3789 14.1162 68.3789 13.9697C68.3789 13.8232 68.4961 13.6523 68.7305 13.457C68.9648 13.252 69.2529 13.0615 69.5947 12.8857C70.2783 12.5342 70.9814 12.2656 71.7041 12.0801L71.8359 11.6699C72.0996 10.8496 72.3486 10 72.583 9.12109C72.8271 8.23242 73.0811 7.36816 73.3447 6.52832C73.6182 5.68848 73.9258 4.89258 74.2676 4.14062C74.6094 3.37891 75.0098 2.71484 75.4688 2.14844C76.4844 0.917969 77.7588 0.302734 79.292 0.302734C80.4248 0.302734 81.3232 0.605469 81.9873 1.21094C82.6514 1.81641 82.9834 2.63672 82.9834 3.67188C82.9834 4.74609 82.6758 5.67871 82.0605 6.46973C81.543 7.12402 80.9668 7.45117 80.332 7.45117C79.541 7.45117 79.0039 7.08984 78.7207 6.36719C78.6426 6.18164 78.6035 6.02539 78.6035 5.89844C78.6035 5.68359 78.75 5.48828 79.043 5.3125C79.5801 4.90234 79.9561 4.35547 80.1709 3.67188C80.2393 3.45703 80.2734 3.24707 80.2734 3.04199C80.2734 2.24121 79.9609 1.84082 79.3359 1.84082C78.4766 1.84082 77.6855 2.8125 76.9629 4.75586C76.748 5.35156 76.5332 6.00586 76.3184 6.71875L74.9414 11.3916C75.8301 11.2549 76.4746 11.1865 76.875 11.1865C77.2852 11.1865 77.6465 11.2354 77.959 11.333C78.2715 11.4209 78.5547 11.5479 78.8086 11.7139C79.3848 12.0947 79.6729 12.5635 79.6729 13.1201C79.6729 13.6768 79.3994 13.9551 78.8525 13.9551L76.9922 13.8818C75.9766 13.8818 75.0391 13.9258 74.1797 14.0137L72.9785 18.2617C72.1875 21.1426 71.543 23.2373 71.0449 24.5459C70.5566 25.8545 70.0781 26.9629 69.6094 27.8711C69.1699 28.7012 68.501 29.1162 67.6025 29.1162C66.7041 29.1162 66.2549 28.8184 66.2549 28.2227ZM79.7754 24.6484C79.5801 24.502 79.4238 24.3408 79.3066 24.165C79.1895 23.9795 79.126 23.8232 79.1162 23.6963C79.1064 23.5596 79.1309 23.3984 79.1895 23.2129C79.2578 23.0176 79.3457 22.7832 79.4531 22.5098C81.4453 17.6074 82.4414 14.3164 82.4414 12.6367C82.4121 12.168 82.251 11.8359 81.958 11.6406L81.665 11.4355C81.5771 11.3672 81.5283 11.25 81.5186 11.084C81.5186 10.9082 81.582 10.7422 81.709 10.5859C81.8359 10.4297 82.002 10.293 82.207 10.1758C82.627 9.95117 83.0566 9.83887 83.4961 9.83887C83.9453 9.83887 84.292 9.8877 84.5361 9.98535C84.79 10.083 85.0049 10.2148 85.1807 10.3809C85.5518 10.7324 85.7373 11.1035 85.7373 11.4941C85.7471 11.8848 85.7031 12.2803 85.6055 12.6807C85.5176 13.0811 85.4102 13.4766 85.2832 13.8672C85.1562 14.248 85.0293 14.6143 84.9023 14.9658C84.7754 15.3076 84.6924 15.5615 84.6533 15.7275C84.5752 16.0693 84.5459 16.2842 84.5654 16.3721C84.7998 16.167 84.9414 15.9668 84.9902 15.7715L85.5615 14.6875C86.8311 12.4023 88.0713 10.8887 89.2822 10.1465C89.6338 9.94141 90.0537 9.83887 90.542 9.83887C91.04 9.83887 91.4404 10.0146 91.7432 10.3662C92.0459 10.708 92.2021 11.0889 92.2119 11.5088C92.2314 11.9287 92.2021 12.2803 92.124 12.5635C92.0557 12.8369 91.9482 13.0957 91.8018 13.3398C91.4795 13.8867 91.0889 14.1602 90.6299 14.1602C90.5029 14.1602 90.3857 14.1162 90.2783 14.0283L89.9561 13.75C89.6338 13.4668 89.3213 13.3252 89.0186 13.3252C88.7256 13.3252 88.3643 13.5205 87.9346 13.9111C87.5146 14.3018 87.0752 14.8047 86.6162 15.4199C85.0732 17.4609 83.8135 19.7461 82.8369 22.2754L82.1924 23.9746C82.0264 24.3945 81.8799 24.6973 81.7529 24.8828C81.626 25.0586 81.4355 25.1465 81.1816 25.1465C80.9375 25.1465 80.6885 25.0977 80.4346 25C80.1904 24.9121 79.9707 24.7949 79.7754 24.6484ZM93.3252 24.0039C92.915 23.6133 92.5928 23.1201 92.3584 22.5244C92.124 21.9189 92.002 21.2061 91.9922 20.3857C91.9824 19.5654 92.0801 18.7354 92.2852 17.8955C92.5 17.0557 92.7979 16.2451 93.1787 15.4639C93.5693 14.6826 94.0332 13.9502 94.5703 13.2666C95.1172 12.583 95.7178 11.9873 96.3721 11.4795C97.7979 10.3857 99.2773 9.83887 100.811 9.83887C102.822 9.83887 104.185 10.7227 104.897 12.4902C105.405 13.7695 105.435 15.3174 104.985 17.1338C104.575 18.8037 103.823 20.3369 102.729 21.7334C101.646 23.1299 100.366 24.1211 98.8916 24.707C98.1494 25 97.417 25.1465 96.6943 25.1465C95.9814 25.1465 95.3418 25.0537 94.7754 24.8682C94.2188 24.6826 93.7354 24.3945 93.3252 24.0039ZM96.123 16.8994C95.8301 17.6221 95.5957 18.3643 95.4199 19.126C95.2539 19.8877 95.1758 20.6104 95.1855 21.2939C95.1953 21.9678 95.2979 22.5 95.4932 22.8906C95.6982 23.2715 96.0254 23.4619 96.4746 23.4619C96.9238 23.4619 97.3633 23.3105 97.793 23.0078C98.2324 22.6953 98.6572 22.2852 99.0674 21.7773C99.4775 21.2695 99.8633 20.6836 100.225 20.0195C100.586 19.3555 100.903 18.6621 101.177 17.9395C101.772 16.3672 102.061 14.9707 102.041 13.75C102.041 12.6758 101.821 11.9922 101.382 11.6992C101.206 11.582 100.957 11.5234 100.635 11.5234C100.322 11.5234 99.9609 11.6699 99.5508 11.9629C99.1406 12.2461 98.7305 12.6318 98.3203 13.1201C97.9102 13.6084 97.5146 14.1797 97.1338 14.834C96.7529 15.4883 96.416 16.1768 96.123 16.8994ZM117.964 12.6074C117.661 12.6074 117.231 12.9004 116.675 13.4863C116.118 14.0625 115.635 14.5898 115.225 15.0684L113.979 16.5625L111.577 19.624C111.011 20.6982 110.566 21.5918 110.244 22.3047L109.453 24.0039C109.248 24.4238 109.067 24.7217 108.911 24.8975C108.765 25.0635 108.56 25.1465 108.296 25.1465C108.042 25.1465 107.793 25.0977 107.549 25C107.314 24.9121 107.109 24.7949 106.934 24.6484C106.562 24.3359 106.377 23.9941 106.377 23.623C106.377 23.4766 106.484 23.1885 106.699 22.7588L107.256 21.5723C107.432 21.2207 107.637 20.7715 107.871 20.2246L108.691 18.2178C109.844 15.3369 110.42 13.4766 110.42 12.6367C110.42 12.1875 110.273 11.8555 109.98 11.6406L109.688 11.4355C109.59 11.3672 109.541 11.25 109.541 11.084C109.541 10.9082 109.604 10.7422 109.731 10.5859C109.868 10.4297 110.044 10.293 110.259 10.1758C110.698 9.95117 111.138 9.83887 111.577 9.83887C112.026 9.83887 112.373 9.8877 112.617 9.98535C112.861 10.083 113.066 10.2148 113.232 10.3809C113.594 10.7227 113.774 11.0791 113.774 11.4502C113.774 11.8213 113.726 12.1973 113.628 12.5781C113.54 12.9492 113.423 13.3301 113.276 13.7207C113.14 14.1016 112.993 14.4775 112.837 14.8486C112.681 15.2197 112.539 15.542 112.412 15.8154L112.119 16.4453C112.041 16.6016 112.021 16.6504 112.061 16.5918C113.145 15.0879 113.857 14.1211 114.199 13.6914L115.225 12.4609C115.977 11.582 116.567 11.001 116.997 10.7178C117.866 10.1318 118.55 9.83887 119.048 9.83887C119.546 9.83887 119.966 9.90234 120.308 10.0293C120.649 10.1562 120.947 10.3369 121.201 10.5713C121.738 11.0693 122.007 11.7041 122.007 12.4756C122.007 13.2471 121.831 14.0527 121.479 14.8926C121.128 15.7324 120.82 16.416 120.557 16.9434C120.303 17.4609 120.059 17.9883 119.824 18.5254C119.092 20.1562 118.726 21.3428 118.726 22.085C118.726 22.417 118.989 22.583 119.517 22.583C119.927 22.583 120.298 22.4951 120.63 22.3193C120.972 22.1436 121.191 22.0557 121.289 22.0557C121.494 22.0557 121.597 22.1582 121.597 22.3633C121.597 23.2324 121.152 23.96 120.264 24.5459C119.668 24.9463 119.121 25.1465 118.623 25.1465C118.125 25.1465 117.71 25.0928 117.378 24.9854C117.056 24.8779 116.768 24.707 116.514 24.4727C115.938 23.9551 115.649 23.2324 115.649 22.3047C115.649 21.1719 116.006 19.7559 116.719 18.0566C117.236 16.8945 117.603 16.0986 117.817 15.6689L118.315 14.6289C118.618 14.0039 118.77 13.5107 118.77 13.1494C118.77 12.7881 118.501 12.6074 117.964 12.6074ZM132.773 21.1621C133.057 21.1621 133.198 21.3525 133.198 21.7334C133.198 22.0557 133.101 22.3682 132.905 22.6709C132.642 23.2373 132.114 23.7744 131.323 24.2822C130.425 24.8584 129.521 25.1465 128.613 25.1465C127.041 25.1465 126.045 24.4434 125.625 23.0371C125.127 21.3672 125.874 17.8271 127.866 12.417C126.743 12.3193 126.133 12.124 126.035 11.8311C126.006 11.7432 125.991 11.6504 125.991 11.5527C125.991 11.4453 126.035 11.3232 126.123 11.1865C126.221 11.0498 126.343 10.918 126.489 10.791C126.831 10.5078 127.178 10.3662 127.529 10.3662H128.687C129.741 7.89551 130.493 6.48926 130.942 6.14746C131.157 5.99121 131.396 5.91309 131.66 5.91309C131.924 5.91309 132.144 5.94727 132.319 6.01562C132.495 6.08398 132.651 6.18164 132.788 6.30859C133.101 6.60156 133.257 6.92871 133.257 7.29004C133.257 7.48535 133.198 7.70996 133.081 7.96387L131.997 10.3223H132.349C132.954 10.3223 133.442 10.3174 133.813 10.3076C133.813 10.3076 134.092 10.3027 134.648 10.293C134.834 10.2832 135.063 10.2783 135.337 10.2783C135.62 10.2783 135.762 10.3809 135.762 10.5859C135.762 11.875 134.238 12.5195 131.191 12.5195H131.074L130.078 15.0977C128.955 18.1445 128.394 20.2783 128.394 21.499C128.394 21.8408 128.472 22.1094 128.628 22.3047C128.784 22.4902 129.077 22.583 129.507 22.583C129.937 22.583 130.327 22.5098 130.679 22.3633C131.03 22.2168 131.338 22.0557 131.602 21.8799C131.865 21.6943 132.09 21.5283 132.275 21.3818C132.471 21.2354 132.637 21.1621 132.773 21.1621Z" fill="#0369A1"/>
</svg>
